<svg width="15" height="15" viewBox="0 0 15 16" fill="none" xmlns="http://www.w3.org/2000/svg">
  <g clip-path="url(#clip0_364_1751)">
      <path d="M15.2 8.57657C15.2 8.04475 15.1523 7.53339 15.0636 7.04248H8V9.94703H12.0364C11.8591 10.8811 11.3273 11.672 10.5295 12.2038V14.0925H12.9636C14.3818 12.7834 15.2 10.8607 15.2 8.57657Z" fill="#4285F4" />
      <path d="M8.00014 15.9061C10.0251 15.9061 11.7229 15.2379 12.9638 14.0924L10.5297 12.2038C9.8615 12.6538 9.00923 12.9265 8.00014 12.9265C6.05014 12.9265 4.39332 11.6106 3.80014 9.83789H1.30469V11.7743C2.53878 14.222 5.06832 15.9061 8.00014 15.9061Z" fill="#34A853" />
      <path d="M3.8 9.83129C3.65 9.38129 3.56136 8.90401 3.56136 8.40629C3.56136 7.90856 3.65 7.43129 3.8 6.98129V5.04492H1.30455C0.793182 6.05401 0.5 7.19265 0.5 8.40629C0.5 9.61992 0.793182 10.7586 1.30455 11.7676L3.24773 10.254L3.8 9.83129Z" fill="#FBBC05" />
      <path d="M8.00014 3.89261C9.10469 3.89261 10.0865 4.27443 10.8706 5.0108L13.0183 2.86307C11.7161 1.64943 10.0251 0.90625 8.00014 0.90625C5.06832 0.90625 2.53878 2.59034 1.30469 5.04489L3.80014 6.98125C4.39332 5.20852 6.05014 3.89261 8.00014 3.89261Z" fill="#EA4335" />
  </g>
  <defs>
      <clipPath id="clip0_364_1751">
          <rect width="16" height="16" fill="white" transform="translate(0 0.40625)" />
      </clipPath>
  </defs>
</svg>